<mxfile host="app.diagrams.net" modified="2023-07-06T08:22:32.281Z" agent="Mozilla/5.0 (Windows NT 10.0; Win64; x64) AppleWebKit/537.36 (KHTML, like Gecko) Chrome/114.0.0.0 Safari/537.36" etag="a6X0tWy3hwLrAHFQ28Dy" version="21.3.6" type="github">
  <diagram name="Pagina-1" id="lT7_xjX243SK2qN-M4d9">
    <mxGraphModel dx="1434" dy="788" grid="1" gridSize="10" guides="1" tooltips="1" connect="1" arrows="1" fold="1" page="1" pageScale="1" pageWidth="827" pageHeight="1169" math="0" shadow="0">
      <root>
        <mxCell id="0" />
        <mxCell id="1" parent="0" />
        <mxCell id="ivcT47_AohxDJanR1482-7" value="" style="edgeStyle=orthogonalEdgeStyle;rounded=0;orthogonalLoop=1;jettySize=auto;html=1;" edge="1" parent="1" source="ivcT47_AohxDJanR1482-2" target="ivcT47_AohxDJanR1482-6">
          <mxGeometry relative="1" as="geometry" />
        </mxCell>
        <mxCell id="ivcT47_AohxDJanR1482-2" value="ARRIVANO DATI IN CODA SQS" style="strokeWidth=2;html=1;shape=mxgraph.flowchart.start_2;whiteSpace=wrap;" vertex="1" parent="1">
          <mxGeometry x="350" y="360" width="100" height="100" as="geometry" />
        </mxCell>
        <mxCell id="ivcT47_AohxDJanR1482-5" value="ilbatch è di dimensione variabile" style="text;html=1;align=center;verticalAlign=middle;resizable=0;points=[];autosize=1;strokeColor=none;fillColor=none;" vertex="1" parent="1">
          <mxGeometry x="500" y="410" width="190" height="30" as="geometry" />
        </mxCell>
        <mxCell id="ivcT47_AohxDJanR1482-9" value="" style="edgeStyle=orthogonalEdgeStyle;rounded=0;orthogonalLoop=1;jettySize=auto;html=1;" edge="1" parent="1" source="ivcT47_AohxDJanR1482-6" target="ivcT47_AohxDJanR1482-8">
          <mxGeometry relative="1" as="geometry" />
        </mxCell>
        <mxCell id="ivcT47_AohxDJanR1482-6" value="attesa di 300 secondi" style="whiteSpace=wrap;html=1;strokeWidth=2;" vertex="1" parent="1">
          <mxGeometry x="340" y="525" width="120" height="60" as="geometry" />
        </mxCell>
        <mxCell id="ivcT47_AohxDJanR1482-11" value="" style="edgeStyle=orthogonalEdgeStyle;rounded=0;orthogonalLoop=1;jettySize=auto;html=1;" edge="1" parent="1" source="ivcT47_AohxDJanR1482-8" target="ivcT47_AohxDJanR1482-10">
          <mxGeometry relative="1" as="geometry" />
        </mxCell>
        <mxCell id="ivcT47_AohxDJanR1482-8" value="partono le prime 4 o più lambda" style="rounded=1;whiteSpace=wrap;html=1;strokeWidth=2;" vertex="1" parent="1">
          <mxGeometry x="340" y="665" width="120" height="60" as="geometry" />
        </mxCell>
        <mxCell id="ivcT47_AohxDJanR1482-13" value="" style="edgeStyle=orthogonalEdgeStyle;rounded=0;orthogonalLoop=1;jettySize=auto;html=1;" edge="1" parent="1" source="ivcT47_AohxDJanR1482-10" target="ivcT47_AohxDJanR1482-12">
          <mxGeometry relative="1" as="geometry" />
        </mxCell>
        <mxCell id="ivcT47_AohxDJanR1482-10" value="si recupera lalista dei device nel lotto in ingresso" style="whiteSpace=wrap;html=1;rounded=1;strokeWidth=2;" vertex="1" parent="1">
          <mxGeometry x="340" y="805" width="120" height="60" as="geometry" />
        </mxCell>
        <mxCell id="ivcT47_AohxDJanR1482-12" value="si recupera lalista dei device da REDIS" style="whiteSpace=wrap;html=1;rounded=1;strokeWidth=2;" vertex="1" parent="1">
          <mxGeometry x="340" y="945" width="120" height="60" as="geometry" />
        </mxCell>
        <mxCell id="ivcT47_AohxDJanR1482-14" value="&lt;ul&gt;&lt;li&gt;in analisi&lt;/li&gt;&lt;li&gt;bloccato&lt;/li&gt;&lt;li&gt;ultimo TS start analisi&lt;/li&gt;&lt;li&gt;ultima durata analisi&lt;/li&gt;&lt;li&gt;ultimo TS stop analisi&lt;/li&gt;&lt;/ul&gt;" style="text;html=1;align=center;verticalAlign=middle;resizable=0;points=[];autosize=1;strokeColor=none;fillColor=none;" vertex="1" parent="1">
          <mxGeometry x="460" y="908" width="180" height="110" as="geometry" />
        </mxCell>
      </root>
    </mxGraphModel>
  </diagram>
</mxfile>
